<svg xmlns="http://www.w3.org/2000/svg" viewBox="0 0 200 180" fill="none">
  <!-- Box -->
  <rect x="20" y="90" width="160" height="75" rx="8" fill="#1e293b"/>
  <rect x="20" y="90" width="160" height="22" rx="8" fill="#374151"/>
  <text x="55" y="106" font-size="9" fill="#94a3b8" font-family="Arial" font-weight="bold">DUST-FREE CHALK</text>
  <text x="72" y="118" font-size="8" fill="#64748b" font-family="Arial">100 pcs / box</text>
  <!-- Chalk pieces (scattered) -->
  <rect x="35" y="30" width="12" height="65" rx="5" fill="white" opacity="0.95"/>
  <rect x="53" y="22" width="12" height="70" rx="5" fill="#fef3c7"/>
  <rect x="71" y="28" width="12" height="65" rx="5" fill="#fecaca"/>
  <rect x="89" y="20" width="12" height="72" rx="5" fill="white" opacity="0.9"/>
  <rect x="107" y="25" width="12" height="68" rx="5" fill="#d1fae5"/>
  <rect x="125" y="22" width="12" height="70" rx="5" fill="#fef3c7"/>
  <rect x="143" y="28" width="12" height="65" rx="5" fill="white" opacity="0.95"/>
  <!-- Tips -->
  <ellipse cx="41" cy="94" rx="6" ry="2.5" fill="#e5e7eb"/>
  <ellipse cx="59" cy="91" rx="6" ry="2.5" fill="#fde68a"/>
  <ellipse cx="77" cy="92" rx="6" ry="2.5" fill="#fca5a5"/>
  <ellipse cx="95" cy="91" rx="6" ry="2.5" fill="#e5e7eb"/>
  <ellipse cx="113" cy="92" rx="6" ry="2.5" fill="#a7f3d0"/>
  <ellipse cx="131" cy="91" rx="6" ry="2.5" fill="#fde68a"/>
  <ellipse cx="149" cy="92" rx="6" ry="2.5" fill="#e5e7eb"/>
  <!-- Chalk dust at bottom of sticks -->
  <ellipse cx="100" cy="88" rx="75" ry="4" fill="white" opacity="0.08"/>
</svg>
