<svg xmlns="http://www.w3.org/2000/svg" viewBox="0 0 200 180" fill="none">
  <!-- Main body -->
  <rect x="15" y="15" width="170" height="155" rx="6" fill="#94a3b8"/>
  <rect x="18" y="18" width="164" height="149" rx="4" fill="#cbd5e1"/>
  <!-- 12 doors: 3 rows, 4 cols -->
  <!-- Row 1 -->
  <rect x="24" y="24" width="36" height="40" rx="3" fill="#e2e8f0" stroke="#94a3b8" stroke-width="1.5"/>
  <circle cx="56" cy="44" r="3" fill="#64748b"/>
  <rect x="66" y="24" width="36" height="40" rx="3" fill="#e2e8f0" stroke="#94a3b8" stroke-width="1.5"/>
  <circle cx="98" cy="44" r="3" fill="#64748b"/>
  <rect x="108" y="24" width="36" height="40" rx="3" fill="#e2e8f0" stroke="#94a3b8" stroke-width="1.5"/>
  <circle cx="140" cy="44" r="3" fill="#64748b"/>
  <rect x="150" y="24" width="36" height="40" rx="3" fill="#e2e8f0" stroke="#94a3b8" stroke-width="1.5"/>
  <circle cx="182" cy="44" r="3" fill="#64748b"/>
  <!-- Row 2 -->
  <rect x="24" y="70" width="36" height="40" rx="3" fill="#e2e8f0" stroke="#94a3b8" stroke-width="1.5"/>
  <circle cx="56" cy="90" r="3" fill="#64748b"/>
  <rect x="66" y="70" width="36" height="40" rx="3" fill="#e2e8f0" stroke="#94a3b8" stroke-width="1.5"/>
  <circle cx="98" cy="90" r="3" fill="#64748b"/>
  <rect x="108" y="70" width="36" height="40" rx="3" fill="#e2e8f0" stroke="#94a3b8" stroke-width="1.5"/>
  <circle cx="140" cy="90" r="3" fill="#64748b"/>
  <rect x="150" y="70" width="36" height="40" rx="3" fill="#e2e8f0" stroke="#94a3b8" stroke-width="1.5"/>
  <circle cx="182" cy="90" r="3" fill="#64748b"/>
  <!-- Row 3 -->
  <rect x="24" y="116" width="36" height="40" rx="3" fill="#e2e8f0" stroke="#94a3b8" stroke-width="1.5"/>
  <circle cx="56" cy="136" r="3" fill="#64748b"/>
  <rect x="66" y="116" width="36" height="40" rx="3" fill="#e2e8f0" stroke="#94a3b8" stroke-width="1.5"/>
  <circle cx="98" cy="136" r="3" fill="#64748b"/>
  <rect x="108" y="116" width="36" height="40" rx="3" fill="#e2e8f0" stroke="#94a3b8" stroke-width="1.5"/>
  <circle cx="140" cy="136" r="3" fill="#64748b"/>
  <rect x="150" y="116" width="36" height="40" rx="3" fill="#e2e8f0" stroke="#94a3b8" stroke-width="1.5"/>
  <circle cx="182" cy="136" r="3" fill="#64748b"/>
</svg>
