<svg xmlns="http://www.w3.org/2000/svg" viewBox="0 0 200 180" fill="none">
  <!-- Box -->
  <rect x="20" y="105" width="160" height="60" rx="8" fill="#1e293b"/>
  <rect x="20" y="105" width="160" height="20" rx="8" fill="#374151"/>
  <text x="70" y="120" font-size="9" fill="#94a3b8" font-family="Arial" font-weight="bold">WHITEBOARD MARKERS</text>
  <!-- Markers -->
  <!-- Blue marker -->
  <rect x="38" y="30" width="18" height="80" rx="6" fill="#3b82f6"/>
  <rect x="38" y="30" width="18" height="12" rx="6" fill="#1d4ed8"/>
  <ellipse cx="47" cy="108" rx="5" ry="3" fill="#1e40af"/>
  <rect x="42" y="104" width="10" height="8" rx="2" fill="#2563eb"/>
  <!-- Red marker -->
  <rect x="63" y="25" width="18" height="85" rx="6" fill="#ef4444"/>
  <rect x="63" y="25" width="18" height="12" rx="6" fill="#b91c1c"/>
  <rect x="67" y="107" width="10" height="8" rx="2" fill="#dc2626"/>
  <!-- Green marker -->
  <rect x="88" y="35" width="18" height="75" rx="6" fill="#22c55e"/>
  <rect x="88" y="35" width="18" height="12" rx="6" fill="#15803d"/>
  <rect x="92" y="107" width="10" height="8" rx="2" fill="#16a34a"/>
  <!-- Black marker -->
  <rect x="113" y="28" width="18" height="82" rx="6" fill="#374151"/>
  <rect x="113" y="28" width="18" height="12" rx="6" fill="#1f2937"/>
  <rect x="117" y="107" width="10" height="8" rx="2" fill="#111827"/>
  <!-- Purple marker -->
  <rect x="138" y="32" width="18" height="78" rx="6" fill="#8b5cf6"/>
  <rect x="138" y="32" width="18" height="12" rx="6" fill="#6d28d9"/>
  <rect x="142" y="107" width="10" height="8" rx="2" fill="#7c3aed"/>
  <!-- Label strips -->
  <rect x="40" y="70" width="14" height="20" rx="1" fill="white" opacity="0.3"/>
  <rect x="65" y="70" width="14" height="20" rx="1" fill="white" opacity="0.3"/>
  <rect x="90" y="70" width="14" height="20" rx="1" fill="white" opacity="0.3"/>
  <rect x="115" y="70" width="14" height="20" rx="1" fill="white" opacity="0.2"/>
  <rect x="140" y="70" width="14" height="20" rx="1" fill="white" opacity="0.3"/>
</svg>
