<svg xmlns="http://www.w3.org/2000/svg" viewBox="0 0 200 180" fill="none">
  <!-- Base -->
  <rect x="45" y="155" width="110" height="16" rx="6" fill="#1e293b"/>
  <!-- Arm -->
  <rect x="85" y="60" width="16" height="100" rx="6" fill="#334155"/>
  <!-- Stage -->
  <rect x="55" y="110" width="90" height="12" rx="4" fill="#475569"/>
  <rect x="75" y="105" width="50" height="8" rx="3" fill="#64748b"/>
  <!-- Stage clips -->
  <rect x="70" y="108" width="8" height="6" rx="1" fill="#94a3b8"/>
  <rect x="122" y="108" width="8" height="6" rx="1" fill="#94a3b8"/>
  <!-- Coarse focus knob -->
  <circle cx="115" cy="100" r="12" fill="#374151"/>
  <circle cx="115" cy="100" r="8" fill="#4b5563"/>
  <circle cx="115" cy="100" r="3" fill="#6b7280"/>
  <!-- Fine focus -->
  <circle cx="115" cy="80" r="8" fill="#374151"/>
  <circle cx="115" cy="80" r="5" fill="#4b5563"/>
  <!-- Body tube -->
  <rect x="82" y="35" width="22" height="30" rx="4" fill="#1e293b"/>
  <!-- Eyepiece binocular -->
  <rect x="68" y="18" width="14" height="22" rx="4" fill="#374151"/>
  <rect x="72" y="14" width="6" height="8" rx="3" fill="#4b5563"/>
  <circle cx="75" cy="13" r="5" fill="#1e293b"/>
  <circle cx="75" cy="13" r="3" fill="#0f172a"/>
  <rect x="100" y="18" width="14" height="22" rx="4" fill="#374151"/>
  <rect x="104" y="14" width="6" height="8" rx="3" fill="#4b5563"/>
  <circle cx="107" cy="13" r="5" fill="#1e293b"/>
  <circle cx="107" cy="13" r="3" fill="#0f172a"/>
  <!-- Objective lenses -->
  <circle cx="93" cy="105" r="7" fill="#1e293b"/>
  <circle cx="93" cy="105" r="4" fill="#0f172a"/>
  <rect x="90" y="98" width="6" height="10" rx="2" fill="#374151"/>
  <!-- LED light -->
  <circle cx="100" cy="118" r="5" fill="#fef3c7"/>
  <circle cx="100" cy="118" r="3" fill="#fbbf24"/>
  <!-- Slide on stage -->
  <rect x="75" y="106" width="50" height="4" rx="1" fill="#e0f2fe"/>
  <rect x="86" y="107" width="14" height="2" rx="1" fill="#0ea5e9" opacity="0.6"/>
</svg>
