<svg xmlns="http://www.w3.org/2000/svg" viewBox="0 0 200 180" fill="none">
  <!-- Ceiling mount bar -->
  <rect x="30" y="15" width="140" height="10" rx="4" fill="#475569"/>
  <rect x="85" y="10" width="30" height="8" rx="3" fill="#64748b"/>
  <!-- Motor housing -->
  <rect x="75" y="20" width="50" height="12" rx="4" fill="#374151"/>
  <!-- Rolled top -->
  <rect x="30" y="30" width="140" height="8" rx="3" fill="#64748b"/>
  <!-- Screen surface -->
  <rect x="30" y="38" width="140" height="110" rx="2" fill="#f8fafc"/>
  <rect x="30" y="38" width="140" height="110" rx="2" stroke="#94a3b8" stroke-width="1.5" fill="none"/>
  <!-- Presentation on screen -->
  <rect x="40" y="48" width="120" height="90" rx="2" fill="#eff6ff"/>
  <!-- Chart bars -->
  <rect x="55" y="108" width="15" height="22" rx="2" fill="#6366f1"/>
  <rect x="75" y="98" width="15" height="32" rx="2" fill="#6366f1" opacity="0.8"/>
  <rect x="95" y="85" width="15" height="45" rx="2" fill="#6366f1"/>
  <rect x="115" y="92" width="15" height="38" rx="2" fill="#6366f1" opacity="0.8"/>
  <rect x="135" y="78" width="15" height="52" rx="2" fill="#6366f1" opacity="0.9"/>
  <line x1="50" y1="130" x2="155" y2="130" stroke="#94a3b8" stroke-width="1.5"/>
  <!-- Title -->
  <rect x="50" y="52" width="80" height="8" rx="2" fill="#1e293b" opacity="0.2"/>
  <rect x="50" y="64" width="60" height="5" rx="2" fill="#6366f1" opacity="0.4"/>
  <!-- Bottom bar -->
  <rect x="30" y="148" width="140" height="6" rx="3" fill="#64748b"/>
  <!-- Remote indicator -->
  <circle cx="185" cy="45" r="8" fill="#374151"/>
  <circle cx="185" cy="45" r="4" fill="#6366f1"/>
  <line x1="185" y1="35" x2="185" y2="20" stroke="#94a3b8" stroke-width="2" stroke-dasharray="2,2"/>
</svg>
