<svg xmlns="http://www.w3.org/2000/svg" viewBox="0 0 200 180" fill="none">
  <!-- Frame -->
  <rect x="10" y="20" width="180" height="130" rx="10" fill="#1e293b"/>
  <!-- Screen -->
  <rect x="16" y="26" width="168" height="118" rx="6" fill="#0f172a"/>
  <!-- Screen content - presentation -->
  <rect x="16" y="26" width="168" height="118" rx="6" fill="#1e40af"/>
  <!-- Slide content -->
  <rect x="24" y="34" width="80" height="50" rx="4" fill="#1d4ed8"/>
  <rect x="28" y="38" width="72" height="8" rx="2" fill="white" opacity="0.9"/>
  <rect x="28" y="50" width="60" height="5" rx="2" fill="#93c5fd"/>
  <rect x="28" y="58" width="65" height="5" rx="2" fill="#93c5fd"/>
  <rect x="28" y="66" width="50" height="5" rx="2" fill="#93c5fd"/>
  <!-- Graph area -->
  <rect x="112" y="34" width="66" height="50" rx="4" fill="#1d4ed8"/>
  <polyline points="118,74 130,60 142,67 154,50 166,55 172,44" fill="none" stroke="#34d399" stroke-width="2.5" stroke-linecap="round"/>
  <line x1="118" y1="78" x2="172" y2="78" stroke="#60a5fa" stroke-width="1"/>
  <line x1="118" y1="38" x2="118" y2="78" stroke="#60a5fa" stroke-width="1"/>
  <!-- Bottom icons row -->
  <rect x="24" y="92" width="50" height="44" rx="4" fill="#1d4ed8"/>
  <text x="35" y="120" font-size="22" fill="white">📊</text>
  <rect x="80" y="92" width="40" height="44" rx="4" fill="#1d4ed8"/>
  <rect x="84" y="96" width="32" height="36" rx="2" fill="#2563eb"/>
  <line x1="88" y1="106" x2="108" y2="106" stroke="white" stroke-width="2"/>
  <line x1="88" y1="112" x2="108" y2="112" stroke="#93c5fd" stroke-width="1.5"/>
  <line x1="88" y1="118" x2="100" y2="118" stroke="#93c5fd" stroke-width="1.5"/>
  <rect x="126" y="92" width="54" height="44" rx="4" fill="#1d4ed8"/>
  <text x="138" y="120" font-size="22" fill="white">✏️</text>
  <!-- Touch point -->
  <circle cx="95" cy="72" r="6" fill="white" opacity="0.3"/>
  <circle cx="95" cy="72" r="3" fill="white" opacity="0.6"/>
  <!-- Stand -->
  <rect x="85" y="150" width="30" height="8" rx="3" fill="#334155"/>
  <rect x="70" y="156" width="60" height="10" rx="4" fill="#475569"/>
  <!-- Bezel buttons -->
  <circle cx="170" cy="150" r="4" fill="#374151"/>
  <circle cx="180" cy="150" r="4" fill="#374151"/>
  <circle cx="160" cy="150" r="4" fill="#16a34a"/>
</svg>
