<svg xmlns="http://www.w3.org/2000/svg" viewBox="0 0 200 180" fill="none">
  <!-- Frame -->
  <rect x="15" y="20" width="170" height="120" rx="6" fill="#94a3b8"/>
  <!-- Surface -->
  <rect x="21" y="26" width="158" height="108" rx="3" fill="#f8fafc"/>
  <!-- Content on board -->
  <text x="35" y="55" font-size="13" fill="#1e293b" font-family="Arial" font-weight="bold">Today's Lesson</text>
  <line x1="35" y1="60" x2="165" y2="60" stroke="#6366f1" stroke-width="2"/>
  <line x1="35" y1="72" x2="145" y2="72" stroke="#94a3b8" stroke-width="1.5"/>
  <line x1="35" y1="82" x2="150" y2="82" stroke="#94a3b8" stroke-width="1.5"/>
  <line x1="35" y1="92" x2="130" y2="92" stroke="#94a3b8" stroke-width="1.5"/>
  <!-- Diagram circle -->
  <circle cx="148" cy="85" r="20" fill="none" stroke="#6366f1" stroke-width="2"/>
  <line x1="128" y1="85" x2="168" y2="85" stroke="#6366f1" stroke-width="1.5"/>
  <line x1="148" y1="65" x2="148" y2="105" stroke="#6366f1" stroke-width="1.5"/>
  <!-- Tray -->
  <rect x="21" y="126" width="158" height="12" rx="3" fill="#64748b"/>
  <!-- Marker on tray -->
  <rect x="40" y="128" width="30" height="7" rx="3" fill="#6366f1"/>
  <rect x="68" y="129" width="4" height="5" rx="1" fill="#4f46e5"/>
  <!-- Duster on tray -->
  <rect x="90" y="128" width="25" height="8" rx="2" fill="#e2e8f0"/>
  <rect x="90" y="128" width="25" height="4" rx="2" fill="#cbd5e1"/>
  <!-- Legs -->
  <rect x="30" y="140" width="8" height="32" rx="3" fill="#64748b"/>
  <rect x="162" y="140" width="8" height="32" rx="3" fill="#64748b"/>
  <line x1="30" y1="168" x2="50" y2="172" stroke="#64748b" stroke-width="4" stroke-linecap="round"/>
  <line x1="170" y1="168" x2="150" y2="172" stroke="#64748b" stroke-width="4" stroke-linecap="round"/>
</svg>
